<?xml version="1.0" standalone="no"?><!DOCTYPE svg PUBLIC "-//W3C//DTD SVG 1.1//EN" "http://www.w3.org/Graphics/SVG/1.1/DTD/svg11.dtd"><svg t="1736585459632" class="icon" viewBox="0 0 1024 1024" version="1.1" xmlns="http://www.w3.org/2000/svg" p-id="2057" xmlns:xlink="http://www.w3.org/1999/xlink" width="64" height="64"><path d="M512.1 959.2c-135.4 0-264.5-61.6-345.2-164.7-9.3-11.8-7.2-28.9 4.7-38.2 11.8-9.3 28.9-7.2 38.2 4.7 70.5 90 183.5 143.8 302.3 143.8 206.7 0 374.8-157.8 374.8-351.9S718.8 201.1 512.1 201.1c-206.7 0-374.8 157.8-374.8 351.9 0 29.4 3.9 58.5 11.5 86.7 3.9 14.5-4.7 29.5-19.2 33.4-14.5 3.9-29.5-4.7-33.4-19.2-8.9-32.8-13.3-66.8-13.3-100.9 0-224 192.6-406.3 429.3-406.3S941.5 329 941.5 553c-0.1 224-192.7 406.2-429.4 406.2z" fill="#383F51" p-id="2058"></path><path d="M133 442.3c-6.4 0-12.8-2.2-17.9-6.7-81.5-71.3-58.5-240.7-37.5-335.2 3.3-14.7 13.7-26.2 28-30.9 14.3-4.7 29.6-1.6 41 8.2l153.6 133.1c11.4 9.8 12.6 27 2.7 38.4-9.8 11.4-27 12.6-38.4 2.7l-138-119.6c-20.2 102.9-23.6 220.3 24.4 262.3 11.3 9.9 12.5 27.1 2.6 38.4-5.4 6.2-12.9 9.3-20.5 9.3zM891.2 442.3c-7.6 0-15.1-3.1-20.5-9.3-9.9-11.3-8.8-28.5 2.6-38.4 48-42 44.6-159.4 24.4-262.3l-138 119.6c-11.4 9.8-28.6 8.6-38.4-2.7-9.9-11.4-8.6-28.6 2.7-38.4L877.6 77.6c11.4-9.9 26.7-12.9 41-8.2 14.3 4.7 24.7 16.3 28 30.9 21 94.6 44 263.9-37.5 335.2-5.2 4.6-11.6 6.8-17.9 6.8z" fill="#383F51" p-id="2059"></path><path d="M378.4 466.8m-37.4 0a37.4 37.4 0 1 0 74.8 0 37.4 37.4 0 1 0-74.8 0Z" fill="#4B5063" p-id="2060"></path><path d="M611.3 466.8m-37.4 0a37.4 37.4 0 1 0 74.8 0 37.4 37.4 0 1 0-74.8 0Z" fill="#4B5063" p-id="2061"></path><path d="M233.4 619.6c-1.4 0-2.8-0.2-4.3-0.5L16.9 568c-9.7-2.3-15.7-12.1-13.4-21.9 2.3-9.7 12.2-15.7 21.9-13.4l212.2 51.1c9.7 2.3 15.7 12.1 13.4 21.9-2 8.3-9.4 13.9-17.6 13.9zM236.4 731.9H18.1c-10 0-18.1-8.1-18.1-18.1 0-10 8.1-18.1 18.1-18.1h218.3c10 0 18.1 8.1 18.1 18.1 0.1 10-8.1 18.1-18.1 18.1zM790.8 619.6c-8.2 0-15.6-5.6-17.6-13.9-2.3-9.7 3.7-19.5 13.4-21.9l212.2-51.1c9.7-2.3 19.5 3.7 21.9 13.4 2.3 9.7-3.7 19.5-13.4 21.9l-212.2 51.1c-1.4 0.3-2.9 0.5-4.3 0.5zM875.6 731.9h-87.8c-10 0-18.1-8.1-18.1-18.1 0-10 8.1-18.1 18.1-18.1h87.8c10 0 18.1 8.1 18.1 18.1 0 10-8.1 18.1-18.1 18.1zM1006.1 731.9h-57.9c-10 0-18.1-8.1-18.1-18.1 0-10 8.1-18.1 18.1-18.1h57.9c10 0 18.1 8.1 18.1 18.1 0 10-8.1 18.1-18.1 18.1zM442.8 715.9c-51.6 0-93.6-42-93.6-93.6 0-7.5 6.1-13.6 13.6-13.6s13.6 6.1 13.6 13.6c0 36.6 29.8 66.4 66.4 66.4s66.4-29.8 66.4-66.4c0-7.5 6.1-13.6 13.6-13.6s13.6 6.1 13.6 13.6c0 51.6-42 93.6-93.6 93.6z" fill="#383F51" p-id="2062"></path><path d="M558.4 715.9c-51.6 0-93.6-42-93.6-93.6 0-7.5 6.1-13.6 13.6-13.6s13.6 6.1 13.6 13.6c0 36.6 29.8 66.4 66.4 66.4s66.4-29.8 66.4-66.4c0-7.5 6.1-13.6 13.6-13.6s13.6 6.1 13.6 13.6c0.1 51.6-41.9 93.6-93.6 93.6z" fill="#383F51" p-id="2063"></path></svg>